<?xml version="1.0" encoding="UTF-8" standalone="no"?>
<svg
   xmlns:dc="http://purl.org/dc/elements/1.1/"
   xmlns:cc="http://creativecommons.org/ns#"
   xmlns:rdf="http://www.w3.org/1999/02/22-rdf-syntax-ns#"
   xmlns:svg="http://www.w3.org/2000/svg"
   xmlns="http://www.w3.org/2000/svg"
   xmlns:sodipodi="http://sodipodi.sourceforge.net/DTD/sodipodi-0.dtd"
   xmlns:inkscape="http://www.inkscape.org/namespaces/inkscape"
   width="210mm"
   height="297mm"
   viewBox="0 0 210 297"
   version="1.1"
   id="svg119"
   inkscape:version="1.0.2 (e86c8708, 2021-01-15)"
   sodipodi:docname="blaadje.svg">
  <defs
     id="defs113" />
  <sodipodi:namedview
     id="base"
     pagecolor="#ffffff"
     bordercolor="#666666"
     borderopacity="1.0"
     inkscape:pageopacity="0.0"
     inkscape:pageshadow="2"
     inkscape:zoom="0.35"
     inkscape:cx="400"
     inkscape:cy="640"
     inkscape:document-units="mm"
     inkscape:current-layer="layer1"
     inkscape:document-rotation="0"
     showgrid="false"
     inkscape:window-width="1248"
     inkscape:window-height="847"
     inkscape:window-x="0"
     inkscape:window-y="25"
     inkscape:window-maximized="0" />
  <metadata
     id="metadata116">
    <rdf:RDF>
      <cc:Work
         rdf:about="">
        <dc:format>image/svg+xml</dc:format>
        <dc:type
           rdf:resource="http://purl.org/dc/dcmitype/StillImage" />
        <dc:title></dc:title>
      </cc:Work>
    </rdf:RDF>
  </metadata>
  <g
     inkscape:label="Ebene 1"
     inkscape:groupmode="layer"
     id="layer1">
    <path
       style="fill:#000000;fill-opacity:1;fill-rule:nonzero;stroke:none;stroke-width:0.264583"
       id="path121"
       d="m 146.11601,140.3328 c -1.72534,0.16537 -3.20916,-0.76066 -4.7538,-1.3603 -2.4517,-0.95177 -2.5622,-0.88998 -5.26638,-1.59306 -5.9244,-1.4192 -12.02026,-1.83673 -18.08761,-2.09776 -5.1061,-0.35262 -10.19813,0.0164 -15.27007,0.5935 -5.85686,0.82631 -11.765852,1.06996 -17.659253,1.47294 -3.899665,0.34801 -7.862379,0.44741 -11.685966,1.37445 -0.91291,0.22134 -1.804278,0.52361 -2.706417,0.78541 -1.004496,0.40563 -2.024478,0.77485 -3.013483,1.21691 -2.005372,0.89636 -4.086931,2.04029 -5.987055,3.13089 -3.992631,2.29162 -7.985014,4.58406 -11.951464,6.9207 -0.904261,0.5327 -1.811441,1.06714 -2.658878,1.68626 -0.860829,0.6289 -1.636678,1.36655 -2.455015,2.04982 -4.189048,3.86174 -7.502335,8.52172 -11.022105,12.9702 -2.89791,3.52622 -3.174074,7.94075 -3.505666,12.30299 0.07427,2.72878 -0.605576,5.57819 -0.156702,8.30067 0.204144,1.23816 0.901536,2.96055 1.325816,4.1164 1.546628,3.52808 3.443833,6.9676 6.256814,9.66107 0.717373,0.68689 1.518613,1.28046 2.27792,1.9207 6.013624,4.35732 12.825425,7.64077 19.940052,9.77525 1.928088,0.57845 3.897551,1.00876 5.846324,1.51314 8.293997,1.94223 16.719671,3.28713 25.246681,3.46952 5.026681,0.10751 7.305768,-0.081 12.271277,-0.31322 6.14812,-0.36231 12.32175,-0.87407 18.34581,-2.21024 2.33892,-0.51879 4.6311,-1.16856 6.94197,-1.79519 4.05405,-1.25971 8.12534,-2.6151 11.96185,-4.45506 4.18642,-2.00778 13.13825,-7.72273 14.36215,-8.46157 4.32382,-3.40854 7.74069,-7.75248 11.05135,-12.10732 1.94142,-2.84062 3.65696,-5.82446 5.51113,-8.72058 1.5881,-2.58578 3.26315,-5.13144 4.25565,-8.01274 0.8074,-2.52847 0.95033,-5.21157 0.0117,-7.73701 -0.20992,-0.56481 -0.52214,-1.08613 -0.78321,-1.62919 -1.88439,-3.21125 -4.23032,-4.67872 -7.75469,-5.57556 -3.35408,-0.55037 -6.69019,0.0157 -9.96645,0.73751 -3.83861,0.92277 -7.76438,1.4369 -11.67572,1.94649 -2.44391,0.34103 -4.91719,0.35368 -7.35888,0.6985 -2.14522,0.28709 -4.28867,0.57557 -6.43215,0.87695 -1.95469,0.27142 -3.92409,0.40013 -5.8957,0.45031 -1.41732,0.0879 -1.3174,-1.06085 -0.93387,-2.13099 1.34764,-2.35906 3.29162,-4.25684 5.30862,-6.04235 2.12929,-2.02467 4.21194,-4.0975 6.29094,-6.17353 1.55691,-1.70258 3.49093,-2.96058 5.32359,-4.33313 1.56199,-1.07861 2.81104,-2.50084 4.17243,-3.7924 0.5351,-0.69603 0.28469,-0.35834 0.75409,-1.01093 0,0 -10.31016,4.42728 -10.31016,4.42728 v 0 c -0.47152,0.56872 -0.21505,0.27864 -0.7751,0.86519 -1.26345,1.34194 -2.68901,2.51452 -4.16747,3.6125 -1.84732,1.36364 -3.66362,2.77171 -5.2241,4.46875 -2.04997,2.06126 -4.09832,4.12602 -6.23606,6.09704 -2.06308,1.95096 -4.17946,3.99525 -5.15527,6.73102 -0.17628,1.64615 -0.0436,3.54199 1.9291,3.88159 2.0184,-0.0774 4.03945,-0.15947 6.04434,-0.42014 2.13832,-0.27258 4.25842,-0.61278 6.40408,-0.82373 2.48519,-0.43331 4.99695,-0.53449 7.5009,-0.84534 3.92326,-0.49096 7.85754,-1.02374 11.72342,-1.84679 3.15457,-0.75661 6.37018,-1.39907 9.63185,-1.10352 3.27493,0.64511 5.4966,1.72586 7.25419,4.71093 1.44305,3.15383 1.45348,5.33741 0.32508,8.6072 -1.14135,2.76999 -2.76637,5.27867 -4.35025,7.81326 -1.77159,2.87719 -3.45879,5.81115 -5.40934,8.57344 -3.22143,4.29584 -6.63699,8.51027 -11.00082,11.7101 2.19647,-1.18749 4.37876,-2.40158 6.58941,-3.56246 0.89968,-0.47245 -1.74932,1.03751 -2.65579,1.49679 -3.80512,1.92796 -7.90962,3.26567 -11.93462,4.63539 -1.68623,0.47118 -5.29483,1.49473 -6.97322,1.90114 -6.09459,1.47579 -12.35269,2.19442 -18.6016,2.59814 -5.09571,0.30235 -7.12409,0.51343 -12.28401,0.44306 -8.457179,-0.11532 -16.836025,-1.35273 -25.048612,-3.34665 -1.890829,-0.51177 -3.800864,-0.95724 -5.672489,-1.53531 -6.907435,-2.13341 -13.562952,-5.31667 -19.306297,-9.72448 -0.707818,-0.61566 -1.453443,-1.19037 -2.123456,-1.84697 -2.669238,-2.6158 -4.534937,-5.92245 -5.99128,-9.32712 -0.470001,-1.38344 -0.902364,-2.42452 -1.104101,-3.87064 -0.37319,-2.67516 0.116398,-5.43821 0.104571,-8.11734 0.395444,-4.36127 0.90573,-8.26804 3.810027,-11.75185 3.397284,-4.42046 6.649643,-9.0144 10.921216,-12.65842 0.837573,-0.64682 1.644227,-1.3358 2.512724,-1.94047 1.78294,-1.24132 10.141101,-5.9786 -3.574698,1.91091 -0.990163,0.56956 1.974972,-1.14898 2.978336,-1.69495 0.952677,-0.51838 1.909193,-1.0317 2.888667,-1.49747 0.944068,-0.44893 1.918952,-0.82997 2.878426,-1.24496 0.869307,-0.28114 1.725576,-0.60634 2.607919,-0.84342 3.784801,-1.01695 7.735718,-1.04831 11.605514,-1.47985 5.91336,-0.49609 11.8522,-0.71071 17.741997,-1.4823 5.030735,-0.58852 10.088726,-0.93378 15.156366,-0.71324 6.02549,0.19763 12.08466,0.49985 17.97524,1.88832 2.16213,0.57946 2.97978,0.70215 4.95234,1.5623 1.33367,0.58155 2.66183,1.50658 4.07745,1.90784 0.23445,0.0665 0.48729,0.009 0.73093,0.0131 0,0 9.07902,-6.5963 9.07902,-6.5963 z" />
  </g>
</svg>
