<?xml version="1.0" encoding="UTF-8" standalone="no"?>
<svg
   xmlns:dc="http://purl.org/dc/elements/1.1/"
   xmlns:cc="http://creativecommons.org/ns#"
   xmlns:rdf="http://www.w3.org/1999/02/22-rdf-syntax-ns#"
   xmlns:svg="http://www.w3.org/2000/svg"
   xmlns="http://www.w3.org/2000/svg"
   xmlns:sodipodi="http://sodipodi.sourceforge.net/DTD/sodipodi-0.dtd"
   xmlns:inkscape="http://www.inkscape.org/namespaces/inkscape"
   width="210mm"
   height="297mm"
   viewBox="0 0 210 297"
   version="1.1"
   id="svg147"
   inkscape:version="1.0.2 (e86c8708, 2021-01-15)"
   sodipodi:docname="knop1.svg">
  <defs
     id="defs141" />
  <sodipodi:namedview
     id="base"
     pagecolor="#ffffff"
     bordercolor="#666666"
     borderopacity="1.0"
     inkscape:pageopacity="0.0"
     inkscape:pageshadow="2"
     inkscape:zoom="0.35"
     inkscape:cx="400"
     inkscape:cy="560"
     inkscape:document-units="mm"
     inkscape:current-layer="layer1"
     inkscape:document-rotation="0"
     showgrid="false"
     inkscape:window-width="1248"
     inkscape:window-height="847"
     inkscape:window-x="0"
     inkscape:window-y="25"
     inkscape:window-maximized="0" />
  <metadata
     id="metadata144">
    <rdf:RDF>
      <cc:Work
         rdf:about="">
        <dc:format>image/svg+xml</dc:format>
        <dc:type
           rdf:resource="http://purl.org/dc/dcmitype/StillImage" />
        <dc:title></dc:title>
      </cc:Work>
    </rdf:RDF>
  </metadata>
  <g
     inkscape:label="Ebene 1"
     inkscape:groupmode="layer"
     id="layer1">
    <path
       style="fill:#000000;fill-opacity:1;fill-rule:nonzero;stroke:none;stroke-width:0.264583"
       id="path163"
       d="m 74.775406,117.11815 c -0.799404,2.06112 -1.461768,4.18798 -2.3539,6.21138 -0.636096,1.36012 -1.174303,2.74284 -1.620729,4.17761 -0.217112,0.87167 -0.238189,1.76493 -0.230542,2.65742 0.11608,1.42217 -0.438505,2.75933 -0.806543,4.11485 -0.349422,1.29312 -0.562081,2.60842 -0.6745,3.9408 -0.04523,2.2307 0.104357,4.43954 0.31899,6.65776 0.538274,3.82482 1.19925,7.63154 2.392233,11.31027 0.959265,2.72331 2.535258,5.13293 4.172603,7.4851 1.302594,1.96327 2.54167,3.97036 3.916511,5.88425 1.256845,1.7144 2.729759,3.1942 4.480801,4.39179 1.214609,0.86942 2.578039,1.47256 3.965265,2.00394 1.188559,0.59617 2.456013,0.90068 3.763306,1.08491 0.946759,0.11843 1.900553,0.13695 2.853172,0.15013 0.836102,-0.004 1.672164,-0.0135 2.508271,-0.005 4.913136,0.14503 -1.757426,-0.9042 10.967006,-5.56446 0.31671,-0.11599 -12.795907,7.36793 -9.201129,5.3161 0,0 8.816689,-7.04231 8.816689,-7.04231 v 0 c -3.61349,1.515 -6.25602,2.61111 -10.143583,5.79667 -2.81623,2.30768 6.317573,-3.62224 9.509503,-5.37385 0.0842,-0.0462 -0.0713,0.19806 -0.15688,0.24149 -0.20202,0.10249 -0.47993,-0.10588 -0.6796,0.002 -0.83835,0.0129 -1.67678,0.011 -2.51521,0.0133 -0.93915,0.0143 -1.87932,0.0229 -2.81769,-0.0257 -1.245274,-0.0929 -2.4825,-0.23585 -3.613392,-0.81202 -1.309683,-0.55706 -2.677909,-0.98817 -3.870521,-1.79481 -1.68737,-1.09285 -3.138533,-2.38289 -4.32372,-4.02932 -1.404348,-1.88431 -2.570197,-3.9337 -3.929894,-5.85097 -1.592048,-2.25159 -3.12807,-4.55624 -4.094228,-7.1592 -1.211959,-3.59185 -1.87851,-7.32483 -2.23647,-11.0966 -0.144172,-2.19778 -0.235559,-4.40419 -0.02402,-6.60163 0.106629,-1.25764 0.349252,-2.49831 0.673983,-3.71758 0.389525,-1.4541 0.890096,-2.87671 0.77551,-4.40699 0.03491,-0.79911 0.09554,-1.59945 0.351954,-2.36391 0.426331,-1.39522 1.057847,-2.70193 1.589844,-4.05793 0.770477,-2.08182 1.469739,-4.19246 2.40546,-6.21001 0,0 -10.168544,4.67274 -10.168544,4.67274 z" />
    <path
       style="fill:#000000;fill-opacity:1;fill-rule:nonzero;stroke:none;stroke-width:0.264583"
       id="path165"
       d="m 75.546132,116.65955 c 1.213553,1.80939 2.472692,3.58751 4.005868,5.14112 1.231458,1.23154 2.649471,2.24413 3.952348,3.39212 1.375471,1.03938 2.660793,2.1642 3.899168,3.3615 1.162319,1.22641 2.224693,2.54796 3.148229,3.96272 1.451843,2.0719 2.874793,4.16425 4.278781,6.26888 1.570146,2.43945 3.143131,4.87679 4.470516,7.45867 1.000988,2.30906 2.265208,4.51885 3.048688,6.91426 0.66517,2.64723 0.76519,5.38523 0.81122,8.10078 0.0996,1.77764 0.40864,3.47572 1.01197,5.14458 0.32944,0.90041 0.39229,1.86172 0.42647,2.81116 -0.004,0.66811 0.009,1.33593 0.009,2.00394 -0.006,0.57796 -0.30217,1.53562 -0.79194,1.87477 -0.63341,0.81956 -1.18786,1.76104 -1.62453,2.74735 -0.35939,0.96611 -0.52042,1.98003 -0.63665,2.99908 -0.0829,0.89769 0.041,1.66007 0.4455,2.46923 0.6309,1.15394 1.51323,2.15932 2.38046,3.1421 0.83727,0.92674 1.5682,1.9381 2.31367,2.93766 0.45947,0.70076 0.94508,1.37204 1.51569,1.9884 0.20274,0.26822 0.16947,0.59995 0.1709,0.91743 -0.004,0.48021 -0.003,0.96047 -0.0148,1.44058 -0.004,0.60481 -0.0635,1.15103 0.18983,1.70658 0.30944,0.35737 0.4706,0.7898 0.72159,1.18055 0.19711,0.37471 0.1013,0.17943 0.28553,0.58677 0,0 9.80524,-5.53772 9.80524,-5.53772 v 0 c -0.21786,-0.4721 -0.10517,-0.23225 -0.33849,-0.71939 -0.1971,-0.34366 -0.30918,-0.7544 -0.61939,-1.01346 0.0143,-0.43785 0.0122,-0.88073 0.0203,-1.3207 -0.004,-0.50668 0.0131,-1.01354 -0.0213,-1.51967 -0.0721,-0.59207 -0.22116,-1.13962 -0.58353,-1.62755 -0.59958,-0.52397 -1.03806,-1.14729 -1.47912,-1.80432 -0.76097,-1.02784 -1.54398,-2.03675 -2.40397,-2.98317 -0.78469,-0.91775 -1.58803,-1.85921 -2.17378,-2.91485 -0.27121,-0.61147 -0.17655,-1.28011 -0.10975,-1.93245 0.10467,-0.90603 0.31132,-1.7977 0.74328,-2.60937 0.53427,-0.92368 1.12579,-1.78648 1.73196,-2.65775 0.26705,-0.80741 0.60047,-1.57001 0.49715,-2.45366 0.004,-0.68928 0.0344,-1.37934 -0.047,-2.06617 -0.0909,-1.05159 -0.2072,-2.11302 -0.60583,-3.10054 -0.61408,-1.52434 -0.87957,-3.11357 -0.9537,-4.75695 -0.13845,-2.80579 -0.2958,-5.6293 -0.98117,-8.36551 -0.80358,-2.45541 -2.11663,-4.70075 -3.17027,-7.05554 -1.37895,-2.59698 -2.92188,-5.09397 -4.51544,-7.56409 -1.38611,-2.11058 -2.81423,-4.1931 -4.18858,-6.31146 -0.967451,-1.49194 -2.030492,-2.91342 -3.291657,-4.17341 -1.248423,-1.19215 -2.438739,-2.44113 -3.876135,-3.4191 -1.274332,-1.16796 -2.731561,-2.10757 -3.976389,-3.31418 -1.504402,-1.45306 -2.774497,-3.11384 -3.767619,-4.95836 0,0 -9.71219,5.62914 -9.71219,5.62914 z" />
    <path
       style="fill:#000000;fill-opacity:1;fill-rule:nonzero;stroke:none;stroke-width:0.264583"
       id="path167"
       d="m 90.553272,109.63021 c 0.19976,-1.85753 0.366953,-3.71836 0.543814,-5.57824 2.504035,-3.01818 0.946118,-1.06184 -8.534432,5.16947 -0.216564,0.14234 0.488847,-0.18739 0.746128,-0.21851 1.027001,-0.1242 2.067454,0.21033 3.034059,0.49154 2.30642,0.87447 4.118551,2.64401 5.837711,4.3568 1.779122,1.76026 3.382433,3.68119 5.100013,5.49802 1.689801,1.98438 3.060415,4.18846 4.767665,6.15848 1.94936,2.2806 3.9696,4.49735 5.93543,6.76359 2.56544,2.97693 4.65239,6.31791 6.52911,9.75954 1.64683,2.90888 2.93297,5.95901 4.01875,9.1113 0.73016,2.20024 1.05771,4.49084 1.19902,6.79554 0.15231,1.55802 -0.0241,3.04745 -0.43707,4.54903 -0.58681,1.37525 -1.35362,2.65061 -2.02999,3.97933 -0.6902,1.17702 -1.34776,2.38309 -1.92214,3.62344 -0.5887,0.55608 -0.81829,1.40132 -1.30439,2.01742 -0.0263,0.0333 -0.66092,0.52658 -0.66522,0.52996 -0.15246,0.0713 -0.3181,0.1195 -0.45736,0.21405 -0.1513,0.10273 -0.25742,0.26189 -0.40424,0.37094 -2.2072,1.63935 -15.727551,9.14687 7.43981,-4.28079 -5.01551,1.95367 -2.72074,1.13484 -11.87891,6.4063 -0.45203,0.87434 -0.79367,1.77152 -1.03619,2.72824 -0.19425,0.84646 -0.0139,0.91973 -0.6899,1.45365 -0.29978,0.64836 0.0628,1.08013 0.35248,1.63811 0.07,0.17221 0.14955,0.34008 0.14217,0.52771 0,0 9.97354,-5.30437 9.97354,-5.30437 v 0 c -0.0759,-0.28794 -0.17131,-0.56406 -0.30816,-0.83001 -0.36507,-0.69878 -0.14367,-0.14 -0.0539,-0.18342 0.12293,-0.0594 0.0803,-0.3055 0.26536,-0.3121 0.27081,-0.57432 0.27432,-1.20615 0.47584,-1.80597 0.24471,-0.72438 0.61413,-1.71706 1.39504,-1.97649 -14.77441,8.47764 -11.76754,5.98372 -7.40016,4.62198 3.45229,-1.95137 9.06489,-4.37871 12.56514,-7.56732 0.69867,-0.86706 1.1911,-1.90915 1.76746,-2.8591 0.63984,-1.21567 1.29981,-2.41997 1.95879,-3.62513 0.69232,-1.36085 1.45039,-2.69939 1.86231,-4.18187 0.36024,-1.60955 0.50126,-3.2241 0.2751,-4.86815 -0.22538,-2.3776 -0.66771,-4.72603 -1.43706,-6.99289 -1.1354,-3.19546 -2.51925,-6.2747 -4.20987,-9.22006 -1.97307,-3.46393 -4.00235,-6.9268 -6.58264,-9.98198 -1.93829,-2.28905 -3.9407,-4.52033 -5.86904,-6.81781 -1.7404,-1.96307 -3.13344,-4.16936 -4.76037,-6.22404 -1.75923,-1.79128 -3.37522,-3.71363 -5.15517,-5.48642 -1.814785,-1.83288 -3.706003,-3.73238 -6.081911,-4.81317 -4.947769,-1.83905 -12.967187,-2.1619 -14.429962,5.79033 -0.09902,1.84299 -0.248275,3.69011 -0.617144,5.50136 0,0 10.080459,-4.92829 10.080459,-4.92829 z" />
  </g>
</svg>
